<svg xmlns="http://www.w3.org/2000/svg" width="256.992" height="256.992"><path d="M0 0h256.991v256.991H0V0" fill="none"/><path d="M159.072 86.495v-5.088H138.72v27.94h20.352v-4.608h-14.688v-7.592h12.86v-4.992h-12.86v-5.664h14.688m-5.664 25.732v10.752h-11.136v-10.752h-5.76v27.84h5.76v-12.48h11.136v12.48h5.664v-27.84h-5.664m5.664 35.712v-4.988H138.72v28.32h20.352v-5.088h-14.688v-7.492h12.86v-4.608h-12.86v-6.144h14.688m-23.616-66.528h-5.664v10.752h-11.136V81.407h-5.664v27.94h5.664v-12.48h11.136v12.48h5.664v-27.94m-46.848 0v5.088h8.636v22.852h5.664V86.499h8.64v-5.088h-22.94m-17.856 30.044c-8.928 0-13.632 5.088-13.632 14.688 0 10.08 4.7 15.072 13.632 15.072s13.536-4.992 13.536-15.072c0-9.596-4.608-14.688-13.536-14.688zm-7.488 14.692c0-6.432 2.5-9.6 7.488-9.6 5.376 0 7.872 3.168 7.872 9.6 0 6.816-2.5 10.08-7.872 10.08-4.992 0-7.488-3.264-7.488-10.08M48.96 112.223v19.68l-11.136-19.68h-6.048v27.84h5.376v-19.584l11.424 19.584h6.048v-27.84H48.96m26.4 42.24v-6.528h14.3v-4.988H69.696v28.32h5.664v-11.812h12.576v-4.992H75.36m59.04-37.248v-4.992h-22.848v4.992h8.544v22.848h5.76v-22.848h8.544m-35.425 12.192c1.824 0 3.264.288 3.936 1.056l1.056 9.6h6.432v-.672c-.672-.384-1.056-2.112-1.056-5.376 0-3.936-1.44-6.048-3.552-7.1 2.88-1.152 4.32-3.264 4.32-6.816 0-4.992-2.88-7.872-8.928-7.872H87.168v27.84h5.76v-10.66zm-6.048-4.7v-7.488h7.1c2.88 0 4.32 1.056 4.32 3.552s-1.44 3.936-4.608 3.936h-6.811m9.983 18.24h-6.815l-9.984 28.32h6.048l2.208-6.144h10.368l1.728 6.144h6.144zm-3.552 6.432l3.552 11.136h-7.1zm31.485 2.876h5.664a10.606 10.606 0 00-2.784-6.432 13.758 13.758 0 00-9.312-3.552 12.442 12.442 0 00-9.312 3.936 16.214 16.214 0 00-3.552 10.752c0 9.984 4.224 14.976 12.48 14.976 7.2 0 11.136-3.552 12.48-10.368h-5.664a6.215 6.215 0 01-6.432 4.992c-4.7 0-6.816-3.168-6.816-9.312 0-6.72 2.112-9.984 6.816-9.984 3.168 0 4.992 1.824 6.432 4.992m-71.228 18.624zm.1 0a3.555 3.555 0 002.3-.864 3.622 3.622 0 00.864-2.4 3.262 3.262 0 00-.864-2.4 3.5 3.5 0 00-2.3-.768h-.1a3.257 3.257 0 00-2.4.768 3.258 3.258 0 00-.768 2.4v.1a3.505 3.505 0 00.768 2.3 3.266 3.266 0 002.4.864h.1zm-.1.768a4.038 4.038 0 01-2.972-1.152 3.787 3.787 0 01-.96-2.784v-.1a3.974 3.974 0 01.96-2.976 3.974 3.974 0 012.976-.96h.1a3.789 3.789 0 012.784.96 4.039 4.039 0 011.14 2.98 3.968 3.968 0 01-1.152 2.88 3.9 3.9 0 01-2.78 1.152zm.384-4.416h.1c.384 0 .576-.192.576-.672v-.1a.094.094 0 01-.1-.1c-.1-.1-.288-.1-.576-.1h-1.056v.96zm.672.672l.768.96a.422.422 0 01-.1.48.433.433 0 01-.576 0l-.96-1.344h-.86v1.056a.413.413 0 01-.384.384.413.413 0 01-.384-.384v-3.168a.413.413 0 01.384-.384h1.536a1.433 1.433 0 01.96.288c.1.1.192.1.192.192a.706.706 0 01.192.576c0 .768-.192 1.152-.768 1.344m102.336-86.496a62.853 62.853 0 0145.792 19.008q19.3 19.3 19.3 46.176v24.672h-26.116v-25.44a34.88 34.88 0 00-10.752-25.728 33.516 33.516 0 00-5.664-4.7 34.428 34.428 0 00-19.68-5.664h-2.88zm36.48 89.856h-20.352v-19.68a10.219 10.219 0 00-3.264-7.872 10.81 10.81 0 00-7.872-3.264h-4.992v-28.224h2.88a31.642 31.642 0 0119.68 6.432 15.861 15.861 0 013.936 3.168 32.415 32.415 0 019.984 24zm-22.848 0h-13.632v-28.316H168a8.717 8.717 0 016.144 2.5 8.772 8.772 0 012.5 6.144v19.68" fill="#231f20" fill-rule="evenodd"/></svg>