<svg xmlns="http://www.w3.org/2000/svg" viewBox="0 0 652 652" width="150" height="150"><path d="M561.2 252.3c0-1.3-1.1-2.4-2.4-2.4h-12c-1.3 0-2.4 1.1-2.4 2.4v45.1c0 .7-.8 1-1.1.2L526.9 252c-.4-1.1-1.2-2.2-3-2.2h-14.3c-1.3 0-2.4 1.1-2.4 2.4v79.2c0 1.3 1.1 2.4 2.4 2.4h12c1.3 0 2.4-1.1 2.4-2.4V290c0-.7.8-1 1.1-.2l16.3 42.1c.4 1 1.2 2 3.2 2h14.2c1.3 0 2.4-1.1 2.4-2.4v-79.2zm-67.3 67.8c0-1.3-1.1-2.4-2.4-2.4h-10.2c-.7 0-1.2-.5-1.2-1.2v-49.2c0-.7.5-1.2 1.2-1.2h9c1.3 0 2.4-1.1 2.4-2.4v-11.4c0-1.3-1.1-2.4-2.4-2.4h-37.2c-1.3 0-2.4 1.1-2.4 2.4v11.4c0 1.3 1.1 2.4 2.4 2.4h9c.7 0 1.2.5 1.2 1.2v49.2c0 .7-.5 1.2-1.2 1.2h-10.2c-1.3 0-2.4 1.1-2.4 2.4v11.4c0 1.3 1.1 2.4 2.4 2.4h39.6c1.3 0 2.4-1.1 2.4-2.4v-11.4zm-107.4-52.2H40c-.8 0-1.5.7-1.5 1.5v165c0 .8.7 1.5 1.5 1.5h345c.8 0 1.5-.7 1.5-1.5V267.9zm234-69v186c0 5-4 9-9 9h-207v51c0 5-4 9-9 9h-366c-5 0-9-4-9-9v-186c0-5 4-9 9-9h357v-51c0-5 4-9 9-9h216c4.9 0 9 4.1 9 9zM333.3 377.1h-28.4c-.7 0-1.2-.5-1.2-1.2v-14.4c0-.7.5-1.2 1.2-1.2h27c1.3 0 2.4-1.1 2.4-2.4v-12c0-1.3-1.1-2.4-2.4-2.4h-27c-.7 0-1.2-.5-1.2-1.2v-14.4c0-.7.5-1.2 1.2-1.2h28c1.3 0 2.4-1.1 2.4-2.4v-12c0-1.3-1.1-2.4-2.4-2.4h-43.6c-1.3 0-2.4 1.1-2.4 2.4v79.2c0 1.3 1.1 2.4 2.4 2.4h44c1.3 0 2.4-1.1 2.4-2.4v-12c0-1.3-1.1-2.4-2.4-2.4zm-62.2-67.2h-12c-1.3 0-2.4 1.1-2.4 2.4v45.1c0 .7-.8 1-1.1.2L239.2 312c-.4-1.1-1.2-2.2-3-2.2H222c-1.3 0-2.4 1.1-2.4 2.4v79.2c0 1.3 1.1 2.4 2.4 2.4h12c1.3 0 2.4-1.1 2.4-2.4V350c0-.7.8-1 1.1-.2l16.3 42.1c.4 1 1.2 2 3.2 2h14.2c1.3 0 2.4-1.1 2.4-2.4v-79.2c-.1-1.3-1.1-2.4-2.5-2.4zm-67.6 0h-12.1c-1.3 0-2.4 1.1-2.4 2.4v56.4c0 5.3-4.3 9.6-11.6 9.6-7.1 0-11.4-4.3-11.4-9.6v-56.4c0-1.3-1.1-2.4-2.4-2.4h-12.1c-1.3 0-2.4 1.1-2.4 2.4v56.4c0 14.5 12 26.5 28.3 26.5 16.6 0 28.6-12 28.6-26.5v-56.4c-.1-1.3-1.2-2.4-2.5-2.4zm-66 2.4v12c0 1.3-1.1 2.4-2.4 2.4h-15c-.7 0-1.2.5-1.2 1.2v63.6c0 1.3-1.1 2.4-2.4 2.4h-12c-1.3 0-2.4-1.1-2.4-2.4v-63.6c0-.7-.5-1.2-1.2-1.2h-15c-1.3 0-2.4-1.1-2.4-2.4v-12c0-1.3 1.1-2.4 2.4-2.4h49.2c1.3 0 2.4 1.1 2.4 2.4z" fill="#14d8cc"/></svg>